<svg xmlns="http://www.w3.org/2000/svg" viewBox="0 0 500 500"><g id="freepik--Weights--inject-106"><path d="M352.62,416.24a14.19,14.19,0,1,0,0-28.37h-2.15v28.37Z" style="fill:#407BFF"></path><path d="M352.62,416.24a14.19,14.19,0,1,0,0-28.37h-2.15v28.37Z" style="opacity:0.2"></path><circle cx="350.47" cy="402.05" r="14.18" transform="translate(-83 91.28) rotate(-13.28)" style="fill:#407BFF"></circle><path d="M352.62,387.87h-2.15a14.19,14.19,0,1,0,0,28.37h2.15a14.19,14.19,0,1,0,0-28.37Z" style="opacity:0.30000000000000004"></path><path d="M347.61,404.9H322.38v-5.7h25.23a2.86,2.86,0,0,1,2.86,2.85h0A2.85,2.85,0,0,1,347.61,404.9Z" style="fill:#407BFF"></path><path d="M325.1,416.24a14.19,14.19,0,0,0,0-28.37h-2.16v28.37Z" style="fill:#407BFF"></path><path d="M325.1,416.24a14.19,14.19,0,0,0,0-28.37h-2.16v28.37Z" style="opacity:0.2"></path><circle cx="322.94" cy="402.05" r="14.18" transform="matrix(0.99, -0.16, 0.16, 0.99, -60.23, 56.92)" style="fill:#407BFF"></circle><path d="M323.5,409.44a7.39,7.39,0,1,0,0-14.77h-1.12v14.77Z" style="fill:#407BFF"></path><path d="M323.5,409.44a7.39,7.39,0,1,0,0-14.77h-1.12v14.77Z" style="opacity:0.2"></path><circle cx="322.38" cy="402.05" r="7.39" style="fill:#407BFF"></circle><path d="M383.85,416.24a9.48,9.48,0,0,0,0-19h-1.44v19Z" style="fill:#407BFF"></path><path d="M383.85,416.24a9.48,9.48,0,0,0,0-19h-1.44v19Z" style="opacity:0.2"></path><circle cx="382.41" cy="406.76" r="9.48" style="fill:#407BFF"></circle><path d="M383.85,397.28h-1.44a9.48,9.48,0,0,0,0,19h1.44a9.48,9.48,0,0,0,0-19Z" style="opacity:0.30000000000000004"></path><path d="M380.51,408.66H363.64v-3.81h16.87a1.91,1.91,0,0,1,1.9,1.91h0A1.9,1.9,0,0,1,380.51,408.66Z" style="fill:#407BFF"></path><path d="M365.46,416.24a9.48,9.48,0,1,0,0-19H364v19Z" style="fill:#407BFF"></path><path d="M365.46,416.24a9.48,9.48,0,1,0,0-19H364v19Z" style="opacity:0.2"></path><circle cx="364.02" cy="406.76" r="9.48" style="fill:#407BFF"></circle><path d="M364.39,411.69a4.94,4.94,0,1,0,0-9.87h-.75v9.87Z" style="fill:#407BFF"></path><path d="M364.39,411.69a4.94,4.94,0,1,0,0-9.87h-.75v9.87Z" style="opacity:0.2"></path><path d="M368.58,406.76a4.94,4.94,0,1,0-4.94,4.93A4.94,4.94,0,0,0,368.58,406.76Z" style="fill:#407BFF"></path><path d="M181.44,403.91a15.36,15.36,0,0,1-4.26,10.63,55.33,55.33,0,0,1-22.25,0,15.38,15.38,0,1,1,26.51-10.63Z" style="fill:#407BFF"></path><path d="M155.44,395.12c-.24-.25-5.92-6.27-5.92-12.16,0-9.07,11.27-9.07,16.09-9.07s16.09,0,16.09,9.07c0,5.89-5.69,11.91-5.93,12.16l-2.89-2.76,1.44,1.38-1.44-1.38c1.34-1.41,4.82-5.85,4.82-9.4,0-4.21-4.84-5.07-12.09-5.07s-12.09.86-12.09,5.07c0,3.57,3.47,8,4.81,9.4Z" style="fill:#407BFF"></path><path d="M171.62,403.28a6,6,0,1,1-6-6A6,6,0,0,1,171.62,403.28Z" style="opacity:0.1"></path></g></svg>