<svg xmlns="http://www.w3.org/2000/svg" viewBox="0 0 500 500"><g id="freepik--Treadmill--inject-100"><path d="M398.57,290.91s-11.84,44.45-13.07,77.4c-1.41,37.59,12.68,82.22,12.68,82.22H334.75v19.73h87.86s-17.24-73.3-14.9-109.65a373,373,0,0,1,10.9-67.46Z" style="fill:#263238"></path><path d="M391.83,290.91s-11.84,44.45-13.07,77.4c-1.41,37.59,12.68,82.22,12.68,82.22H347.75A19.73,19.73,0,0,0,328,470.26h87.86S398.63,397,401,360.61a373,373,0,0,1,10.9-67.46Z" style="fill:#455a64"></path><path d="M269.43,288.15h0a4.56,4.56,0,0,0,4.56,4.56h46.78V283.2l-46.82.39A4.56,4.56,0,0,0,269.43,288.15Z" style="fill:#455a64"></path><path d="M395.34,470.22H57.8a12.49,12.49,0,0,1-12.49-12.49h0A12.49,12.49,0,0,1,57.8,445.24H395.34a12.49,12.49,0,0,1,12.49,12.49h0A12.49,12.49,0,0,1,395.34,470.22Z" style="fill:#455a64"></path><path d="M343.78,470.22H57.8a12.49,12.49,0,0,1-12.49-12.49h0A12.49,12.49,0,0,1,57.8,445.24h286a12.49,12.49,0,0,1,12.49,12.49h0A12.49,12.49,0,0,1,343.78,470.22Z" style="fill:#263238"></path><path d="M317.12,290.91s-11.84,44.45-13.07,77.4c-1.41,37.59,12.68,82.22,12.68,82.22H253.31v19.73h87.86s-17.25-73.3-14.9-109.65a372.45,372.45,0,0,1,10.89-67.46Z" style="fill:#263238"></path><path d="M310.38,290.91s-11.84,44.45-13.07,77.4C295.9,405.9,310,450.53,310,450.53H266.3a19.73,19.73,0,0,0-19.73,19.73h87.86s-17.25-73.3-14.9-109.65a372.45,372.45,0,0,1,10.89-67.46Z" style="fill:#455a64"></path><path d="M343.11,470.56c-.14,0-2-6-4.09-13.42s-3.72-13.53-3.58-13.57,2,6,4.08,13.43S343.25,470.52,343.11,470.56Z" style="fill:#455a64"></path><path d="M407.83,456.26c0,.15-11.55.26-25.8.26s-25.8-.11-25.8-.26S367.78,456,382,456,407.83,456.12,407.83,456.26Z" style="fill:#263238"></path><path d="M403.33,470.22c0-.05.51-.31,1.39-.94a12.93,12.93,0,0,0,3.13-3.26,14,14,0,0,0,.63-14.16,15.22,15.22,0,0,0-2.63-3.31,9.39,9.39,0,0,0-3.45-1.81,31.25,31.25,0,0,0-6.65-1.16c-1.93-.15-3.5-.2-4.58-.24a11.41,11.41,0,0,1-1.69-.1,8.73,8.73,0,0,1,1.69-.1c1.09,0,2.66,0,4.61.07a29.78,29.78,0,0,1,6.77,1.07,9.86,9.86,0,0,1,3.64,1.89,15.66,15.66,0,0,1,2.74,3.42,12.16,12.16,0,0,1,1.49,4.13,17,17,0,0,1,.1,4.08,13.27,13.27,0,0,1-2.36,6.43,12.47,12.47,0,0,1-3.32,3.22c-.47.28-.84.49-1.1.61S403.34,470.24,403.33,470.22Z" style="fill:#263238"></path><polygon points="314.44 284.91 311.2 293.93 330.42 293.15 411.89 295.42 466.28 261.24 463.81 252.26 369.09 247.77 314.44 284.91" style="fill:#455a64"></polygon><polygon points="417.53 297.32 330.42 293.15 376.93 257.97 466.28 261.24 417.53 297.32" style="fill:#263238"></polygon><path d="M318.5,282.15A8.63,8.63,0,0,1,317,283.5a30.83,30.83,0,0,0-3.58,3.29,15.45,15.45,0,0,0-2.6,4,15.77,15.77,0,0,1-.77,1.88,5.33,5.33,0,0,1,.43-2,13,13,0,0,1,2.55-4.26,21.86,21.86,0,0,1,3.74-3.23A7.78,7.78,0,0,1,318.5,282.15Z" style="fill:#263238"></path><path d="M376.93,258a41.5,41.5,0,0,1-4.09-5,41.88,41.88,0,0,1-3.68-5.33,40.84,40.84,0,0,1,4.1,5A39.94,39.94,0,0,1,376.93,258Z" style="fill:#263238"></path><path d="M333.14,293.54a23.48,23.48,0,0,1-3.39,0l-8.18-.19c-3.19-.09-6.08-.21-8.18-.34a20.73,20.73,0,0,1-3.37-.33,22.42,22.42,0,0,1,3.39,0l8.18.19c3.19.09,6.08.21,8.18.34A19.9,19.9,0,0,1,333.14,293.54Z" style="fill:#263238"></path></g></svg>